<svg xmlns="http://www.w3.org/2000/svg" viewBox="0 0 53 53.86"><defs><style>.cls-1{fill:#55c5ce;}</style></defs><title>Asset 1</title><g id="Layer_2" data-name="Layer 2"><g id="Layer_1-2" data-name="Layer 1"><path class="cls-1" d="M7.28,11.28l2.84,2.16a21.66,21.66,0,0,1,7.1-5.75l.87,1.54A19.54,19.54,0,0,0,7.69,22.46a19.43,19.43,0,0,0,3.51,16.47L9.85,40.09a21.56,21.56,0,0,1-.91-25L6.14,12.9A25.08,25.08,0,1,0,49.89,37H46.13a.39.39,0,0,0-.29.14,20.54,20.54,0,0,1-5.71,6.74c-.81.63-1.69,1.18-2.57,1.79l-1-1.58.28-.17a19.13,19.13,0,0,0,7-7,15,15,0,0,0,.77-1.71A.26.26,0,0,1,45,35h6.35a.8.8,0,0,1,.87,1.07,6.13,6.13,0,0,1-.36,1.07,26.68,26.68,0,0,1-18.67,16,25.15,25.15,0,0,1-8.38.63A26.34,26.34,0,0,1,9.16,47.17,26.58,26.58,0,0,1,1,34.11,26.3,26.3,0,0,1,0,26a25.14,25.14,0,0,1,1.56-8.05A26.56,26.56,0,0,1,20.52.8,24.43,24.43,0,0,1,29.65.17,25.9,25.9,0,0,1,49.47,12.69c.49.78.92,1.6,1.36,2.41a.54.54,0,0,0,.41.32,2.16,2.16,0,1,1-2.5,2.72,2.09,2.09,0,0,1,.36-1.91.35.35,0,0,0,0-.43,25.87,25.87,0,0,0-10.41-11,23.63,23.63,0,0,0-6.11-2.29,25.11,25.11,0,0,0-12.17.18,24.59,24.59,0,0,0-12,7.18C8.07,10.35,7.69,10.81,7.28,11.28Z"/><path class="cls-1" d="M37.13,36.68a2.22,2.22,0,0,1-.3-2,2.17,2.17,0,1,1,2.11,2.87.57.57,0,0,0-.35.17A15.93,15.93,0,0,1,18.3,40.29l-.23-.14H18L15.69,43.2a19.86,19.86,0,0,0,17.19,2.54l.52,1.73a21.73,21.73,0,0,1-20.38-4l3.45-4.52A15.91,15.91,0,0,1,12,32.55a13.66,13.66,0,0,1-.84-3.32l1.69-.14c1.5,6.52,5.38,10.65,12,11.75C29.64,41.63,33.7,40,37.13,36.68Z"/><path class="cls-1" d="M21.76,7.86l-.47-1.74c.61-.13,1.19-.29,1.78-.38a21.34,21.34,0,0,1,17,4.15,20.83,20.83,0,0,1,6.3,7.83,1.68,1.68,0,0,1,.13.38.77.77,0,0,1-.61.93,7.45,7.45,0,0,1-1.12.07l-5.68,0a.64.64,0,0,1-.61-.31,13.62,13.62,0,0,0-3.3-3.36l-.28-.21L36,13.76c.59.49,1.2.94,1.74,1.45s1.09,1.16,1.64,1.74a.5.5,0,0,0,.3.16H44A19.68,19.68,0,0,0,21.76,7.86Z"/><path class="cls-1" d="M12.9,24.85l-1.79-.13a15.51,15.51,0,0,1,6-10.33c4.62-3.54,9.74-4.24,15.29-2.48l-.62,1.7A14.21,14.21,0,0,0,12.9,24.85Z"/></g></g></svg>